<svg xmlns="http://www.w3.org/2000/svg" width="375" viewBox="0 0 375 375" height="375" version="1.0"><defs><clipPath id="a"><path d="M 122.128906 97.179688 L 265.324219 97.179688 L 265.324219 247.179688 L 122.128906 247.179688 Z M 122.128906 97.179688"/></clipPath></defs><path fill="#C6BA87" d="M 212.75 124.476562 C 213.53125 123.375 214.113281 122.070312 214.578125 120.652344 C 213.324219 120.417969 211.894531 123.667969 212.75 124.476562 Z M 217.074219 116.828125 C 217.5625 115.816406 218.082031 114.839844 218.40625 113.667969 C 217.152344 113.6875 216.078125 116.183594 217.074219 116.828125 Z M 218.238281 108.675781 C 217.234375 109.601562 215.105469 112.238281 216.574219 113.5 C 216.792969 111.765625 218.699219 109.984375 218.238281 108.675781 Z M 224.230469 104.6875 C 223.25 104.277344 221.945312 104.199219 220.734375 104.023438 C 219.792969 103.722656 221.367188 103.417969 221.066406 102.691406 C 217.738281 102.855469 219.742188 106.195312 223.0625 105.519531 C 219.667969 114.875 215.832031 123.789062 211.085938 131.792969 C 209.613281 131.546875 209.414062 130.027344 208.921875 128.800781 C 210.886719 122.796875 213.523438 114.453125 215.910156 107.511719 C 216.574219 105.585938 217.59375 102.007812 218.738281 101.027344 C 220.332031 99.664062 226.535156 98.953125 226.226562 102.523438 C 226.128906 103.652344 225.03125 103.9375 224.230469 104.6875" fill-rule="evenodd"/><path fill="#FFE9FD" d="M 227.222656 198.980469 C 227.222656 199.144531 227.222656 199.3125 227.222656 199.476562 C 228.140625 199.914062 230.367188 200.058594 231.050781 199.3125 C 230.183594 198.878906 228.113281 198.847656 227.222656 198.980469 Z M 175.144531 188.503906 C 169.003906 187.800781 165.332031 195.023438 169.988281 198.148438 C 164.570312 202.425781 172.070312 210.363281 177.140625 206.628906 C 173.953125 206.246094 170.242188 205.824219 169.65625 202.96875 C 168.917969 199.382812 171.4375 198.523438 174.980469 198.8125 C 173.535156 196.847656 169.925781 197.671875 169.324219 195.15625 C 168.464844 191.570312 171.945312 189.730469 175.476562 190.164062 C 176.347656 190.273438 177.070312 191.070312 177.972656 190.496094 C 177.972656 188.988281 176.066406 188.609375 175.144531 188.503906 Z M 198.105469 176.527344 C 196.777344 183.027344 197.027344 192.476562 204.929688 191.828125 C 210.058594 189.527344 211.148438 182.304688 211.917969 176.195312 C 210.441406 178.4375 209.945312 181.214844 208.921875 184.34375 C 208.144531 186.71875 206.363281 190.242188 203.765625 190.332031 C 199.753906 190.46875 198.882812 184.730469 199.105469 179.855469 C 199.164062 178.535156 199.824219 176.996094 198.773438 176.03125 C 198.355469 176 198.25 176.285156 198.105469 176.527344 Z M 196.109375 177.359375 C 196.125 176.808594 196.6875 175.257812 195.945312 175.03125 C 195.757812 175.601562 195.558594 177.039062 196.109375 177.359375 Z M 172.152344 174.367188 C 172.828125 173.957031 172.882812 171.640625 172.316406 171.042969 C 172.144531 171.894531 171.511719 173.78125 172.152344 174.367188 Z M 158.839844 169.378906 C 157.632812 174.558594 156.515625 185.421875 162.335938 185.507812 C 163.621094 185.527344 165.308594 184.558594 166.160156 183.679688 C 168.621094 181.148438 169.953125 175.867188 169.488281 171.042969 C 168.414062 172.476562 168.273438 174.660156 167.660156 176.695312 C 166.820312 179.46875 165.335938 184.179688 162.167969 183.847656 C 157.433594 183.347656 160.914062 173.109375 159.339844 169.378906 C 159.171875 169.378906 159.007812 169.378906 158.839844 169.378906 Z M 255.175781 169.875 C 255.277344 170.429688 254.761719 171.359375 255.675781 171.539062 C 256.398438 169.457031 255.21875 166.472656 254.175781 165.054688 C 254.171875 166.746094 254.902344 168.398438 255.175781 169.875 Z M 141.039062 163.558594 C 139.773438 163.101562 138.625 161.648438 137.210938 161.894531 C 138.234375 162.59375 139.636719 163.789062 141.039062 163.558594 Z M 225.226562 141.9375 C 227.347656 142.019531 230.492188 141.351562 232.378906 141.9375 C 231.070312 140.425781 226.5625 140.339844 225.226562 141.9375 Z M 166.328125 133.789062 C 166.515625 131.296875 168.101562 128.496094 167.492188 126.304688 C 166.667969 128.253906 165.835938 131.078125 166.328125 133.789062 Z M 192.617188 123.644531 C 193.761719 125.050781 194.144531 127.21875 195.609375 128.300781 C 195.597656 126.207031 194.230469 124.027344 192.617188 122.980469 C 192.617188 123.203125 192.617188 123.421875 192.617188 123.644531 Z M 139.871094 166.71875 C 140.582031 167.117188 139.128906 165.824219 138.707031 165.554688 C 136.910156 164.382812 133.996094 163.507812 132.386719 162.226562 C 127.671875 158.472656 124.21875 151.585938 124.730469 144.433594 C 125.261719 137.035156 129.304688 131.378906 133.882812 126.804688 C 138.464844 122.226562 144.773438 118.46875 151.851562 118.15625 C 156.582031 117.949219 162.007812 118.128906 165.660156 119.820312 C 164.285156 123.046875 163.238281 126.597656 163 130.960938 C 165.753906 125.75 166.394531 119.34375 170.652344 115.664062 C 174.179688 112.617188 180.296875 108.058594 184.960938 107.679688 C 196.039062 106.78125 205.011719 111.746094 211.085938 116.992188 C 210.601562 119.507812 209.53125 121.429688 208.921875 123.8125 C 205.761719 124.421875 203.328125 125.757812 201.433594 127.636719 C 197.476562 127.285156 195.285156 130.136719 193.78125 132.792969 C 192.792969 130.789062 192.699219 127.886719 190.621094 126.972656 C 190.867188 129.292969 191.90625 131.589844 192.617188 134.121094 C 193.726562 138.089844 193.867188 141.632812 196.109375 144.265625 C 198.621094 147.214844 204.214844 150.691406 209.753906 148.921875 C 212.027344 148.195312 213.914062 146.78125 216.410156 146.09375 C 219.839844 145.15625 223.710938 144.617188 228.554688 144.765625 C 227.738281 142.433594 221.863281 143.367188 219.070312 143.769531 C 221.453125 138.375 221.222656 128.554688 215.578125 126.972656 C 217.109375 124.125 218.351562 120.988281 219.902344 118.15625 C 223.347656 118.0625 227.898438 117.382812 231.550781 118.488281 C 235.449219 119.675781 239.535156 122.1875 242.863281 124.644531 C 246.015625 126.964844 248.976562 129.972656 251.679688 133.125 C 257.398438 139.792969 261.988281 147.492188 262.664062 156.738281 C 263.296875 165.46875 260.152344 171.804688 254.011719 175.03125 C 253.84375 172.429688 254.113281 169.382812 252.511719 168.214844 C 253.125 174.453125 253.363281 181.359375 251.015625 186.671875 C 249.378906 190.371094 243.71875 195.519531 239.703125 196.816406 C 237.585938 197.5 235.121094 197.152344 232.714844 197.480469 C 232.882812 198.867188 234.492188 198.808594 236.039062 198.8125 C 234.417969 207.195312 222.648438 212.910156 213.414062 208.957031 C 212.523438 209.078125 213.277344 210.113281 213.082031 210.289062 C 205.46875 213.96875 199.160156 218.417969 187.789062 217.605469 C 173.992188 216.617188 164.191406 209.789062 157.84375 201.640625 C 154.046875 202.582031 149.675781 202.902344 144.863281 202.636719 C 138.769531 202.300781 133.863281 198.277344 131.386719 193.65625 C 130.554688 192.101562 129.472656 190.230469 129.222656 188.503906 C 127.992188 179.9375 131.453125 173.730469 135.714844 169.710938 C 134.664062 169.21875 134.183594 166.507812 135.378906 165.71875 C 136.914062 165.371094 138.320312 166.535156 139.871094 166.71875" fill-rule="evenodd"/><path fill="#63512E" d="M 216.574219 113.5 C 215.105469 112.238281 217.234375 109.601562 218.238281 108.679688 C 218.699219 109.984375 216.792969 111.769531 216.574219 113.5" fill-rule="evenodd"/><path fill="#63512E" d="M 218.40625 113.667969 C 218.082031 114.839844 217.5625 115.816406 217.074219 116.828125 C 216.078125 116.183594 217.152344 113.6875 218.40625 113.667969" fill-rule="evenodd"/><path fill="#63512E" d="M 214.578125 120.652344 C 214.109375 122.070312 213.53125 123.375 212.75 124.476562 C 211.894531 123.664062 213.324219 120.417969 214.578125 120.652344" fill-rule="evenodd"/><path fill="#CE8EC8" d="M 192.617188 122.980469 C 194.230469 124.027344 195.597656 126.207031 195.609375 128.300781 C 194.144531 127.21875 193.761719 125.050781 192.617188 123.644531 C 192.617188 123.421875 192.617188 123.203125 192.617188 122.980469" fill-rule="evenodd"/><path fill="#EA2A2A" d="M 202.765625 132.957031 C 200.128906 131.148438 197.339844 136.910156 197.773438 139.277344 C 197.96875 140.347656 199.039062 141.417969 199.9375 141.273438 C 201.28125 141.054688 201.054688 138.972656 201.765625 137.78125 C 202.527344 137.433594 203.332031 137.125 203.765625 136.449219 C 203.617188 134.628906 203.59375 133.527344 202.765625 132.957031 Z M 208.253906 126.304688 C 208.183594 126.839844 207.9375 127.207031 207.921875 127.800781 C 207.59375 128.046875 206.84375 127.257812 206.425781 127.96875 C 206.980469 129.300781 208.316406 129.847656 208.253906 131.792969 C 209.863281 132.625 210.898438 134.03125 212.582031 134.785156 C 212.800781 134.726562 212.84375 134.496094 213.082031 134.453125 C 213.257812 133.390625 212.363281 133.398438 212.25 132.625 C 213.292969 131.171875 214.179688 129.566406 214.910156 127.800781 C 219.957031 129.871094 220.042969 140.292969 216.742188 144.433594 C 212.355469 144.9375 210.066406 148.273438 205.429688 147.757812 C 199.769531 147.128906 194.335938 141.914062 194.445312 135.285156 C 194.5 132.03125 196.976562 130.980469 198.9375 129.296875 C 203.484375 130.496094 204.097656 124.992188 208.253906 126.304688" fill-rule="evenodd"/><path fill="#CE8EC8" d="M 167.492188 126.304688 C 168.105469 128.492188 166.515625 131.296875 166.328125 133.789062 C 165.835938 131.078125 166.667969 128.253906 167.492188 126.304688" fill-rule="evenodd"/><path fill="#EA5C5C" d="M 200.769531 133.957031 C 199.695312 134.476562 197.804688 140.1875 199.9375 140.109375 C 200.3125 138.210938 201 136.628906 202.765625 136.117188 C 202.835938 135.105469 202.382812 134.613281 202.101562 133.957031 C 201.816406 134.144531 201.265625 133.714844 200.769531 133.957031 Z M 203.765625 136.449219 C 203.332031 137.125 202.527344 137.433594 201.765625 137.78125 C 201.054688 138.972656 201.28125 141.054688 199.9375 141.273438 C 199.035156 141.417969 197.96875 140.351562 197.773438 139.277344 C 197.339844 136.910156 200.128906 131.148438 202.765625 132.957031 C 203.59375 133.527344 203.617188 134.628906 203.765625 136.449219" fill-rule="evenodd"/><path fill="#EA5C5C" d="M 202.101562 133.957031 C 202.382812 134.613281 202.835938 135.105469 202.765625 136.117188 C 201 136.628906 200.3125 138.214844 199.9375 140.109375 C 197.804688 140.1875 199.691406 134.476562 200.769531 133.957031 C 201.265625 133.714844 201.816406 134.144531 202.101562 133.957031" fill-rule="evenodd"/><path fill="#CE8EC8" d="M 232.382812 141.9375 C 230.492188 141.351562 227.347656 142.019531 225.226562 141.9375 C 226.566406 140.339844 231.070312 140.425781 232.382812 141.9375" fill-rule="evenodd"/><path fill="#CE8EC8" d="M 137.210938 161.894531 C 138.625 161.648438 139.773438 163.101562 141.039062 163.558594 C 139.636719 163.789062 138.234375 162.59375 137.210938 161.894531" fill-rule="evenodd"/><path fill="#CE8EC8" d="M 254.175781 165.054688 C 255.21875 166.472656 256.398438 169.457031 255.675781 171.539062 C 254.757812 171.359375 255.277344 170.429688 255.175781 169.875 C 254.902344 168.398438 254.171875 166.746094 254.175781 165.054688" fill-rule="evenodd"/><path d="M 159.339844 169.378906 C 160.914062 173.109375 157.4375 183.347656 162.167969 183.84375 C 165.335938 184.179688 166.820312 179.46875 167.660156 176.695312 C 168.273438 174.660156 168.414062 172.476562 169.488281 171.039062 C 169.953125 175.867188 168.621094 181.148438 166.160156 183.679688 C 165.308594 184.558594 163.621094 185.527344 162.335938 185.507812 C 156.515625 185.421875 157.632812 174.558594 158.839844 169.378906 C 159.007812 169.378906 159.171875 169.378906 159.339844 169.378906" fill-rule="evenodd"/><path fill="#CE8EC8" d="M 172.316406 171.042969 C 172.882812 171.640625 172.828125 173.957031 172.152344 174.367188 C 171.511719 173.78125 172.144531 171.890625 172.316406 171.042969" fill-rule="evenodd"/><path fill="#CE8EC8" d="M 195.945312 175.03125 C 196.6875 175.257812 196.125 176.808594 196.109375 177.359375 C 195.558594 177.039062 195.757812 175.601562 195.945312 175.03125" fill-rule="evenodd"/><path d="M 198.773438 176.03125 C 199.824219 176.996094 199.164062 178.535156 199.105469 179.855469 C 198.882812 184.730469 199.753906 190.46875 203.761719 190.332031 C 206.363281 190.242188 208.144531 186.71875 208.921875 184.34375 C 209.945312 181.214844 210.441406 178.4375 211.917969 176.195312 C 211.148438 182.304688 210.058594 189.527344 204.929688 191.828125 C 197.027344 192.476562 196.777344 183.027344 198.105469 176.527344 C 198.25 176.285156 198.355469 176 198.773438 176.03125" fill-rule="evenodd"/><path d="M 177.972656 190.496094 C 177.070312 191.070312 176.347656 190.273438 175.480469 190.164062 C 171.945312 189.730469 168.464844 191.570312 169.324219 195.15625 C 169.925781 197.671875 173.535156 196.847656 174.980469 198.8125 C 171.4375 198.523438 168.917969 199.382812 169.65625 202.96875 C 170.242188 205.824219 173.953125 206.246094 177.140625 206.628906 C 172.070312 210.363281 164.570312 202.425781 169.988281 198.148438 C 165.332031 195.023438 169.003906 187.800781 175.144531 188.503906 C 176.066406 188.605469 177.972656 188.988281 177.972656 190.496094" fill-rule="evenodd"/><path fill="#CE8EC8" d="M 231.050781 199.3125 C 230.367188 200.058594 228.140625 199.914062 227.222656 199.476562 C 227.222656 199.3125 227.222656 199.144531 227.222656 198.980469 C 228.113281 198.847656 230.183594 198.878906 231.050781 199.3125" fill-rule="evenodd"/><path fill="#B8CFE8" d="M 158.839844 214.113281 C 160.855469 214.757812 163.183594 215.980469 165.496094 215.773438 C 163.636719 215.078125 161.09375 213.3125 158.839844 214.113281 Z M 156.84375 202.636719 C 159.410156 205.394531 161.871094 209.1875 165.496094 211.453125 C 167.816406 212.898438 170.785156 214.203125 173.648438 215.609375 C 176.453125 216.984375 179.644531 218.144531 182.800781 218.601562 C 184.683594 218.875 186.910156 219.203125 188.957031 219.269531 C 199.964844 219.609375 206.847656 215.023438 214.078125 210.785156 C 217.371094 212.507812 222.789062 212.035156 226.058594 210.621094 C 226.011719 211.515625 225.882812 212.332031 225.558594 212.949219 C 213.273438 218.023438 197.566406 222.566406 179.636719 221.097656 C 175.472656 220.753906 170.996094 219.472656 166.992188 218.4375 C 162.871094 217.371094 159.085938 215.804688 155.511719 214.777344 C 154.875 211.089844 153.980469 207.660156 153.351562 203.96875 C 154.191406 203.203125 155.824219 203.226562 156.84375 202.636719" fill-rule="evenodd"/><path fill="#696C7F" d="M 165.496094 215.777344 C 163.183594 215.980469 160.855469 214.757812 158.839844 214.113281 C 161.09375 213.3125 163.636719 215.078125 165.496094 215.777344" fill-rule="evenodd"/><path fill="#DCEBF9" d="M 224.894531 214.945312 C 225.003906 214.945312 225.117188 214.945312 225.226562 214.945312 C 224.460938 218.613281 223.871094 222.460938 223.0625 226.085938 C 222.171875 226.464844 221.75 226.582031 220.566406 226.417969 C 212.21875 230.097656 202.125 234.78125 189.953125 234.066406 C 178.394531 233.390625 166.917969 231.210938 158.675781 226.917969 C 157.648438 223.394531 156.714844 219.785156 155.847656 216.109375 C 156.714844 215.914062 157.578125 216.488281 158.339844 216.773438 C 162.847656 218.441406 167.394531 219.941406 172.984375 221.097656 C 175 221.515625 177.167969 222.21875 179.140625 222.425781 C 193.441406 223.949219 208.738281 220.824219 219.570312 216.9375 C 221.484375 216.253906 223.335938 215.542969 224.894531 214.945312" fill-rule="evenodd"/><path fill="#B8CFE8" d="M 214.246094 233.902344 C 213.179688 234.128906 211.605469 233.902344 211.25 235.066406 C 213.140625 234.894531 216.117188 234.394531 217.574219 233.238281 C 216.453125 233.113281 215.351562 233.664062 214.246094 233.902344 Z M 159.007812 228.246094 C 167.1875 232.328125 180.960938 235.429688 193.449219 235.398438 C 201.164062 235.378906 208.539062 232.65625 214.910156 230.242188 C 217.5 229.261719 219.5 228.148438 222.230469 227.417969 C 222.425781 227.441406 222.527344 227.378906 222.566406 227.25 C 222.636719 230.425781 221.152344 233.488281 220.570312 236.5625 C 212.644531 241.671875 198.121094 245.46875 184.464844 244.378906 C 180.886719 244.09375 176.839844 243.1875 173.316406 242.382812 C 168.304688 241.242188 163.957031 239.414062 161.335938 236.230469 C 160.589844 233.539062 159.8125 230.878906 159.007812 228.246094" fill-rule="evenodd"/><path fill="#696C7F" d="M 217.574219 233.238281 C 216.117188 234.394531 213.140625 234.894531 211.25 235.066406 C 211.605469 233.902344 213.179688 234.128906 214.246094 233.902344 C 215.351562 233.664062 216.453125 233.113281 217.574219 233.238281" fill-rule="evenodd"/><g clip-path="url(#a)"><path d="M 161.335938 236.230469 C 163.957031 239.414062 168.304688 241.242188 173.316406 242.382812 C 176.839844 243.1875 180.886719 244.09375 184.464844 244.378906 C 198.121094 245.46875 212.644531 241.671875 220.570312 236.5625 C 221.152344 233.488281 222.636719 230.425781 222.566406 227.25 C 222.527344 227.378906 222.425781 227.441406 222.230469 227.417969 C 219.5 228.148438 217.5 229.261719 214.910156 230.242188 C 208.539062 232.65625 201.164062 235.378906 193.449219 235.398438 C 180.960938 235.429688 167.1875 232.328125 159.007812 228.246094 C 159.8125 230.878906 160.589844 233.539062 161.335938 236.230469 Z M 219.570312 216.9375 C 208.738281 220.824219 193.441406 223.949219 179.140625 222.425781 C 177.167969 222.21875 175 221.515625 172.984375 221.097656 C 167.394531 219.941406 162.847656 218.441406 158.339844 216.773438 C 157.578125 216.488281 156.714844 215.914062 155.847656 216.109375 C 156.714844 219.785156 157.648438 223.394531 158.675781 226.917969 C 166.917969 231.210938 178.394531 233.390625 189.953125 234.066406 C 202.125 234.78125 212.21875 230.097656 220.570312 226.417969 C 221.75 226.582031 222.171875 226.464844 223.0625 226.085938 C 223.871094 222.460938 224.460938 218.613281 225.226562 214.945312 C 225.117188 214.945312 225.003906 214.945312 224.894531 214.945312 C 223.335938 215.542969 221.484375 216.253906 219.570312 216.9375 Z M 153.351562 203.96875 C 153.980469 207.660156 154.875 211.089844 155.511719 214.777344 C 159.085938 215.804688 162.871094 217.371094 166.992188 218.4375 C 170.996094 219.472656 175.472656 220.753906 179.636719 221.097656 C 197.566406 222.566406 213.273438 218.023438 225.558594 212.949219 C 225.882812 212.332031 226.011719 211.515625 226.058594 210.621094 C 222.789062 212.035156 217.371094 212.507812 214.078125 210.785156 C 206.847656 215.023438 199.964844 219.609375 188.957031 219.269531 C 186.910156 219.203125 184.683594 218.875 182.800781 218.601562 C 179.644531 218.144531 176.453125 216.984375 173.648438 215.609375 C 170.785156 214.203125 167.816406 212.898438 165.496094 211.453125 C 161.871094 209.1875 159.410156 205.394531 156.84375 202.636719 C 155.824219 203.226562 154.191406 203.203125 153.351562 203.96875 Z M 198.9375 129.300781 C 196.976562 130.980469 194.5 132.035156 194.445312 135.285156 C 194.335938 141.914062 199.769531 147.128906 205.429688 147.757812 C 210.066406 148.273438 212.355469 144.9375 216.742188 144.433594 C 220.042969 140.292969 219.957031 129.871094 214.910156 127.800781 C 214.179688 129.566406 213.292969 131.171875 212.25 132.625 C 212.363281 133.398438 213.257812 133.390625 213.082031 134.453125 C 212.84375 134.496094 212.800781 134.726562 212.582031 134.785156 C 210.898438 134.03125 209.863281 132.625 208.253906 131.792969 C 208.316406 129.847656 206.980469 129.300781 206.425781 127.96875 C 206.84375 127.257812 207.59375 128.046875 207.921875 127.800781 C 207.9375 127.207031 208.183594 126.839844 208.253906 126.304688 C 204.097656 124.992188 203.484375 130.496094 198.9375 129.300781 Z M 135.378906 165.71875 C 134.183594 166.507812 134.664062 169.21875 135.714844 169.710938 C 131.453125 173.730469 127.992188 179.9375 129.222656 188.503906 C 129.472656 190.230469 130.554688 192.101562 131.386719 193.65625 C 133.863281 198.277344 138.769531 202.300781 144.863281 202.636719 C 149.675781 202.902344 154.046875 202.582031 157.84375 201.640625 C 164.191406 209.789062 173.992188 216.617188 187.792969 217.605469 C 199.160156 218.417969 205.46875 213.96875 213.082031 210.289062 C 213.277344 210.109375 212.523438 209.078125 213.414062 208.957031 C 222.648438 212.910156 234.417969 207.195312 236.042969 198.8125 C 234.492188 198.808594 232.882812 198.867188 232.714844 197.480469 C 235.121094 197.152344 237.585938 197.5 239.703125 196.816406 C 243.71875 195.519531 249.378906 190.371094 251.015625 186.671875 C 253.363281 181.359375 253.125 174.453125 252.511719 168.214844 C 254.117188 169.382812 253.84375 172.429688 254.011719 175.03125 C 260.152344 171.804688 263.296875 165.46875 262.664062 156.738281 C 261.988281 147.492188 257.398438 139.789062 251.679688 133.125 C 248.976562 129.972656 246.015625 126.964844 242.863281 124.644531 C 239.535156 122.1875 235.449219 119.675781 231.550781 118.488281 C 227.898438 117.378906 223.347656 118.0625 219.902344 118.15625 C 218.351562 120.988281 217.109375 124.125 215.578125 126.972656 C 221.222656 128.554688 221.453125 138.375 219.070312 143.769531 C 221.859375 143.367188 227.738281 142.433594 228.554688 144.765625 C 223.710938 144.617188 219.839844 145.15625 216.410156 146.097656 C 213.914062 146.777344 212.03125 148.195312 209.753906 148.921875 C 204.21875 150.691406 198.621094 147.214844 196.109375 144.265625 C 193.867188 141.632812 193.726562 138.089844 192.617188 134.121094 C 191.90625 131.589844 190.867188 129.292969 190.621094 126.972656 C 192.699219 127.882812 192.792969 130.789062 193.78125 132.792969 C 195.285156 130.136719 197.476562 127.285156 201.433594 127.636719 C 203.328125 125.757812 205.761719 124.421875 208.921875 123.8125 C 209.53125 121.429688 210.601562 119.507812 211.085938 116.992188 C 205.011719 111.746094 196.039062 106.78125 184.960938 107.679688 C 180.296875 108.058594 174.179688 112.617188 170.652344 115.664062 C 166.394531 119.339844 165.753906 125.75 163 130.960938 C 163.238281 126.597656 164.285156 123.046875 165.664062 119.820312 C 162.007812 118.128906 156.582031 117.949219 151.851562 118.15625 C 144.773438 118.46875 138.464844 122.226562 133.882812 126.804688 C 129.304688 131.378906 125.261719 137.035156 124.730469 144.433594 C 124.21875 151.585938 127.671875 158.472656 132.386719 162.226562 C 133.996094 163.507812 136.910156 164.382812 138.707031 165.550781 C 139.128906 165.824219 140.582031 167.117188 139.871094 166.714844 C 138.320312 166.535156 136.914062 165.371094 135.378906 165.71875 Z M 226.226562 102.523438 C 226.535156 98.953125 220.332031 99.664062 218.738281 101.027344 C 217.59375 102.007812 216.574219 105.582031 215.910156 107.511719 C 213.523438 114.453125 210.886719 122.796875 208.921875 128.800781 C 209.414062 130.027344 209.613281 131.546875 211.085938 131.792969 C 215.832031 123.789062 219.667969 114.875 223.0625 105.519531 C 219.742188 106.195312 217.738281 102.855469 221.066406 102.691406 C 221.367188 103.417969 219.792969 103.722656 220.734375 104.019531 C 221.945312 104.199219 223.25 104.277344 224.226562 104.6875 C 225.03125 103.9375 226.128906 103.652344 226.226562 102.523438 Z M 221.898438 115.496094 C 231.308594 114.59375 237.800781 117.96875 243.695312 122.148438 C 247.527344 124.863281 250.609375 128.417969 253.511719 131.792969 C 259.875 139.191406 265.304688 147.628906 265.324219 159.066406 C 265.339844 167.621094 261.308594 173.785156 255.34375 177.359375 C 255.136719 185.363281 252.746094 189.769531 248.355469 193.988281 C 245.582031 196.652344 242.613281 198.695312 238.371094 199.476562 C 237.226562 205.429688 233.171875 208.472656 228.386719 210.785156 C 227.015625 220.222656 225.007812 229.027344 223.0625 237.894531 C 217.039062 243.101562 205.425781 246.226562 194.445312 247.039062 C 186.632812 247.617188 179.847656 246.351562 173.316406 244.878906 C 169.453125 244.003906 165.804688 242.828125 163.167969 241.21875 C 161.9375 240.46875 159.824219 238.691406 159.171875 237.5625 C 158.132812 235.75 157.375 231.886719 156.84375 229.746094 C 154.863281 221.761719 152.316406 213.882812 151.1875 204.964844 C 141.011719 206.640625 133.398438 201.890625 129.558594 195.820312 C 128.410156 194.007812 127.027344 191.132812 126.730469 189 C 125.492188 180.203125 128.589844 173.40625 132.886719 169.210938 C 132.359375 168.207031 132.484375 166.246094 133.050781 165.386719 C 126.597656 161.515625 121.296875 154.039062 122.238281 143.269531 C 122.972656 134.816406 128.542969 127.925781 134.214844 122.980469 C 141.988281 116.203125 154.292969 113.355469 165.496094 117.160156 C 166.988281 116.394531 167.960938 114.695312 169.324219 113.5 C 170.96875 112.054688 173.386719 110.253906 175.644531 108.84375 C 177.910156 107.429688 181.320312 105.503906 183.796875 105.183594 C 189.460938 104.457031 197.023438 105.84375 201.101562 107.511719 C 205.058594 109.136719 208.320312 111.738281 211.085938 113.832031 C 213.921875 107.6875 213.769531 97.921875 222.230469 97.203125 C 225.632812 96.914062 229.648438 99.449219 228.722656 103.523438 C 228.320312 105.285156 225.839844 106.054688 224.894531 107.511719 C 223.230469 110.082031 223.585938 113.046875 221.898438 115.496094" fill-rule="evenodd"/></g><g fill="#FFF"><g><g><path d="M 9.046875 -4.34375 L 9.03125 -4.296875 L 8.90625 -2.46875 L 8.859375 -1.640625 L 8.84375 -1.40625 L 8.828125 -1.1875 C 8.847656 -0.851562 8.785156 -0.515625 8.640625 -0.171875 C 8.585938 -0.0351562 8.546875 0.09375 8.515625 0.21875 C 8.398438 0.738281 8.125 1.289062 7.6875 1.875 L 7.25 2.515625 C 7.125 2.691406 6.992188 2.8125 6.859375 2.875 C 6.640625 2.96875 6.445312 3.109375 6.28125 3.296875 C 6.132812 3.441406 5.929688 3.519531 5.671875 3.53125 C 5.203125 3.5625 4.679688 3.453125 4.109375 3.203125 C 3.867188 3.097656 3.59375 2.953125 3.28125 2.765625 L 2.875 2.515625 L 2.46875 2.25 C 2.082031 2.019531 1.769531 1.738281 1.53125 1.40625 C 1.019531 0.707031 0.6875 0.0234375 0.53125 -0.640625 C 0.269531 -1.773438 0.117188 -2.925781 0.078125 -4.09375 L 0.03125 -5.78125 L 0 -7.484375 L 0 -9.015625 L 0.03125 -10.5625 L 0.03125 -10.640625 L 0.15625 -12.125 C 0.207031 -12.71875 0.257812 -13.210938 0.3125 -13.609375 C 0.5 -14.992188 1.085938 -16.171875 2.078125 -17.140625 C 2.285156 -17.347656 2.546875 -17.570312 2.859375 -17.8125 L 3.65625 -18.421875 C 3.769531 -18.503906 3.878906 -18.566406 3.984375 -18.609375 C 4.546875 -18.804688 5.0625 -18.867188 5.53125 -18.796875 C 5.75 -18.765625 5.925781 -18.664062 6.0625 -18.5 L 6.34375 -18.109375 L 6.484375 -17.90625 L 6.609375 -17.71875 C 6.816406 -17.445312 6.960938 -17.097656 7.046875 -16.671875 C 7.140625 -16.273438 7.171875 -15.914062 7.140625 -15.59375 C 7.128906 -15.46875 7.132812 -15.320312 7.15625 -15.15625 L 7.21875 -14.734375 L 7.296875 -14.078125 L 7.328125 -13.453125 C 7.335938 -13.191406 7.300781 -12.988281 7.21875 -12.84375 C 7.195312 -12.800781 7.164062 -12.78125 7.125 -12.78125 L 7.0625 -12.796875 L 7.03125 -12.84375 L 6.890625 -13.28125 L 6.765625 -13.84375 L 6.71875 -14.03125 L 6.65625 -14.234375 L 6.421875 -14.765625 L 6.203125 -15.3125 C 5.910156 -16.007812 5.554688 -16.5625 5.140625 -16.96875 C 5.046875 -17.0625 4.941406 -17.066406 4.828125 -16.984375 C 4.535156 -16.753906 4.316406 -16.488281 4.171875 -16.1875 L 4.0625 -15.953125 L 3.953125 -15.703125 C 3.867188 -15.515625 3.820312 -15.34375 3.8125 -15.1875 L 3.828125 -14.84375 L 3.828125 -14.515625 L 3.8125 -14.375 L 3.765625 -14.21875 C 3.734375 -14.09375 3.71875 -13.992188 3.71875 -13.921875 C 3.71875 -13.710938 3.6875 -13.445312 3.625 -13.125 C 3.5625 -12.84375 3.550781 -12.515625 3.59375 -12.140625 L 3.65625 -11.28125 L 3.6875 -10.40625 L 3.765625 -8.671875 L 3.8125 -7.90625 L 3.84375 -7.140625 L 3.921875 -5.90625 L 4.015625 -4.65625 L 4.046875 -4.34375 L 4.0625 -4.046875 L 4.078125 -3.640625 L 4.125 -3.25 L 4.25 -2.453125 C 4.300781 -2.160156 4.363281 -1.898438 4.4375 -1.671875 C 4.570312 -1.296875 4.71875 -0.984375 4.875 -0.734375 C 5.070312 -0.421875 5.257812 -0.1875 5.4375 -0.03125 C 5.6875 0.207031 5.945312 0.222656 6.21875 0.015625 C 6.65625 -0.304688 6.976562 -0.601562 7.1875 -0.875 C 7.382812 -1.132812 7.519531 -1.453125 7.59375 -1.828125 C 7.675781 -2.285156 7.789062 -2.8125 7.9375 -3.40625 L 8 -3.78125 C 8.0625 -4.1875 8.144531 -4.519531 8.25 -4.78125 C 8.289062 -4.875 8.320312 -4.992188 8.34375 -5.140625 L 8.390625 -5.515625 L 8.40625 -5.578125 L 8.421875 -5.65625 C 8.429688 -5.707031 8.460938 -5.742188 8.515625 -5.765625 C 8.566406 -5.773438 8.617188 -5.757812 8.671875 -5.71875 L 8.765625 -5.59375 L 8.890625 -5.4375 C 9.085938 -5.195312 9.15625 -4.910156 9.09375 -4.578125 L 9.0625 -4.484375 L 9.046875 -4.359375 Z M 9.046875 -4.34375" transform="translate(136.12 308.585)"/></g></g></g><g fill="#FFF"><g><g><path d="M 9.375 -5.71875 C 9.238281 -5.601562 9.125 -5.445312 9.03125 -5.25 C 8.90625 -4.988281 8.753906 -4.753906 8.578125 -4.546875 C 8.441406 -4.390625 8.296875 -4.195312 8.140625 -3.96875 L 7.765625 -3.359375 C 7.535156 -2.972656 7.171875 -2.492188 6.671875 -1.921875 L 6.09375 -1.34375 C 5.738281 -0.976562 5.425781 -0.726562 5.15625 -0.59375 L 5 -0.5 L 4.84375 -0.390625 C 4.707031 -0.304688 4.613281 -0.203125 4.5625 -0.078125 L 4.484375 0.0625 L 4.390625 0.1875 C 4.222656 0.488281 3.957031 0.59375 3.59375 0.5 C 3.445312 0.46875 3.257812 0.40625 3.03125 0.3125 C 2.601562 0.132812 2.109375 -0.117188 1.546875 -0.453125 C 1.128906 -0.710938 0.867188 -1.113281 0.765625 -1.65625 C 0.703125 -1.957031 0.660156 -2.300781 0.640625 -2.6875 C 0.617188 -3.34375 0.585938 -3.894531 0.546875 -4.34375 C 0.515625 -4.613281 0.492188 -4.96875 0.484375 -5.40625 L 0.453125 -6.46875 L 0.375 -7.71875 L 0.3125 -8.96875 L 0.21875 -10.1875 C 0.1875 -10.695312 0.171875 -11.109375 0.171875 -11.421875 L 0.15625 -12.234375 L 0.09375 -13.03125 C 0.03125 -14.03125 0 -15.28125 0 -16.78125 L 0 -19.15625 C 0.0078125 -19.4375 0.140625 -19.535156 0.390625 -19.453125 L 0.546875 -19.40625 L 0.703125 -19.390625 C 0.828125 -19.398438 0.976562 -19.390625 1.15625 -19.359375 L 1.625 -19.28125 C 2 -19.226562 2.273438 -19.109375 2.453125 -18.921875 C 2.515625 -18.867188 2.601562 -18.835938 2.71875 -18.828125 L 2.859375 -18.796875 L 2.96875 -18.734375 L 3.0625 -18.65625 L 3.140625 -18.5625 C 3.203125 -18.488281 3.269531 -18.441406 3.34375 -18.421875 C 3.9375 -18.242188 4.269531 -17.796875 4.34375 -17.078125 L 4.4375 -16.203125 L 4.515625 -15.328125 L 4.5625 -14.546875 L 4.625 -13.765625 L 4.671875 -13.15625 L 4.671875 -12.5625 L 4.6875 -12.09375 L 4.71875 -11.625 L 4.75 -11.21875 L 4.765625 -8.953125 L 4.78125 -8.453125 L 4.828125 -7.96875 L 4.828125 -7.328125 L 4.921875 -5.859375 C 4.953125 -5.273438 4.960938 -4.789062 4.953125 -4.40625 C 4.941406 -4.070312 5.101562 -3.773438 5.4375 -3.515625 C 5.550781 -3.429688 5.664062 -3.4375 5.78125 -3.53125 C 5.882812 -3.625 5.988281 -3.765625 6.09375 -3.953125 L 7.296875 -6.203125 L 8.09375 -7.71875 C 8.226562 -7.96875 8.375 -8.265625 8.53125 -8.609375 L 8.9375 -9.515625 L 9.140625 -10 L 9.328125 -10.46875 C 9.492188 -10.851562 9.582031 -11.222656 9.59375 -11.578125 L 9.625 -12.609375 L 9.671875 -13.609375 C 9.660156 -14.191406 9.6875 -14.867188 9.75 -15.640625 C 9.769531 -15.953125 9.835938 -16.332031 9.953125 -16.78125 C 10.015625 -17.03125 10.195312 -17.273438 10.5 -17.515625 C 10.914062 -17.847656 11.410156 -18.128906 11.984375 -18.359375 C 12.378906 -18.503906 12.757812 -18.441406 13.125 -18.171875 L 13.203125 -18.125 L 13.28125 -18.0625 C 13.625 -17.875 13.78125 -17.578125 13.75 -17.171875 L 13.703125 -16.3125 L 13.703125 -15.09375 C 13.734375 -14.832031 13.753906 -14.515625 13.765625 -14.140625 L 13.78125 -13.1875 L 13.8125 -12.265625 L 13.875 -11.0625 L 13.90625 -10.703125 L 13.921875 -10.578125 L 13.9375 -10.46875 L 13.921875 -9.890625 L 13.9375 -9.3125 C 13.96875 -8.800781 13.96875 -8.410156 13.9375 -8.140625 C 13.90625 -7.660156 13.882812 -6.976562 13.875 -6.09375 L 13.859375 -5.0625 L 13.8125 -4.03125 L 13.75 -3.015625 C 13.71875 -2.640625 13.664062 -2.304688 13.59375 -2.015625 L 13.5625 -1.78125 C 13.570312 -1.5 13.476562 -1.226562 13.28125 -0.96875 C 13.164062 -0.8125 13.039062 -0.5625 12.90625 -0.21875 C 12.71875 0.238281 12.359375 0.519531 11.828125 0.625 C 11.546875 0.675781 11.175781 0.695312 10.71875 0.6875 C 10.425781 0.6875 10.285156 0.5625 10.296875 0.3125 C 10.316406 -0.0078125 10.210938 -0.320312 9.984375 -0.625 C 9.929688 -0.695312 9.894531 -0.78125 9.875 -0.875 L 9.75 -1.546875 C 9.695312 -1.796875 9.664062 -2.015625 9.65625 -2.203125 L 9.609375 -3.390625 L 9.546875 -4.5625 L 9.484375 -4.921875 L 9.453125 -5.109375 L 9.40625 -5.296875 C 9.363281 -5.453125 9.351562 -5.59375 9.375 -5.71875 Z M 9.375 -5.71875" transform="translate(147.655 308.585)"/></g></g></g><g fill="#FFF"><g><g><path d="M 9.3125 -16.3125 C 9.257812 -15.832031 9.109375 -15.238281 8.859375 -14.53125 C 8.765625 -14.25 8.609375 -14.003906 8.390625 -13.796875 C 8.035156 -13.441406 7.703125 -13.085938 7.390625 -12.734375 C 6.847656 -12.140625 6.179688 -11.632812 5.390625 -11.21875 L 5.25 -11.140625 C 5.125 -11.078125 5.050781 -11.125 5.03125 -11.28125 L 5.015625 -11.46875 C 5.066406 -11.96875 5.019531 -12.554688 4.875 -13.234375 L 4.828125 -13.46875 L 4.828125 -13.703125 L 4.765625 -14.28125 C 4.734375 -14.5 4.6875 -14.691406 4.625 -14.859375 L 4.609375 -15.046875 C 4.554688 -15.679688 4.332031 -16.554688 3.9375 -17.671875 L 3.609375 -18.59375 C 3.460938 -18.9375 3.320312 -19.238281 3.1875 -19.5 C 2.945312 -19.90625 2.984375 -20.285156 3.296875 -20.640625 C 3.773438 -21.179688 4.195312 -21.507812 4.5625 -21.625 C 4.738281 -21.695312 5 -21.75 5.34375 -21.78125 C 5.976562 -21.875 6.613281 -21.671875 7.25 -21.171875 C 7.96875 -20.617188 8.523438 -19.898438 8.921875 -19.015625 C 8.984375 -18.867188 9.046875 -18.679688 9.109375 -18.453125 L 9.25 -17.875 C 9.363281 -17.5 9.382812 -16.976562 9.3125 -16.3125 Z M 10.90625 -16.375 C 10.90625 -16.601562 10.867188 -16.835938 10.796875 -17.078125 C 10.710938 -17.359375 10.644531 -17.644531 10.59375 -17.9375 C 10.445312 -18.726562 10.15625 -19.46875 9.71875 -20.15625 C 9.21875 -20.90625 8.617188 -21.460938 7.921875 -21.828125 C 7.753906 -21.921875 7.550781 -22.003906 7.3125 -22.078125 L 6.6875 -22.265625 C 6.039062 -22.453125 5.40625 -22.507812 4.78125 -22.4375 C 3.96875 -22.3125 3.269531 -21.988281 2.6875 -21.46875 L 2.390625 -21.171875 C 2.234375 -20.992188 2.0625 -20.972656 1.875 -21.109375 C 1.625 -21.285156 1.316406 -21.296875 0.953125 -21.140625 L 0.796875 -21.09375 L 0.640625 -21.03125 C 0.484375 -20.96875 0.34375 -20.867188 0.21875 -20.734375 C 0.0703125 -20.578125 0.0234375 -20.410156 0.078125 -20.234375 L 0.140625 -19.96875 L 0.1875 -19.734375 C 0.4375 -18.660156 0.546875 -17.648438 0.515625 -16.703125 L 0.53125 -16.421875 L 0.5625 -16.140625 L 0.59375 -16 L 0.609375 -15.859375 L 0.65625 -14.078125 L 0.6875 -13.1875 L 0.96875 -9.546875 C 0.988281 -9.273438 0.992188 -9.039062 0.984375 -8.84375 C 0.953125 -8.4375 0.941406 -7.957031 0.953125 -7.40625 L 0.984375 -5.984375 L 1.015625 -3.875 L 1.015625 -2.296875 C 1.035156 -1.710938 1.066406 -1.191406 1.109375 -0.734375 L 1.21875 0.671875 L 1.234375 0.828125 L 1.265625 1 C 1.328125 1.3125 1.515625 1.453125 1.828125 1.421875 C 1.984375 1.398438 2.191406 1.34375 2.453125 1.25 L 3.03125 0.984375 C 3.269531 0.878906 3.472656 0.8125 3.640625 0.78125 C 3.734375 0.75 3.832031 0.691406 3.9375 0.609375 L 4.203125 0.359375 L 4.3125 0.21875 L 4.4375 0.078125 C 4.976562 -0.546875 5.257812 -1.242188 5.28125 -2.015625 C 5.289062 -2.609375 5.359375 -3.164062 5.484375 -3.6875 C 5.566406 -4.082031 5.578125 -4.546875 5.515625 -5.078125 C 5.472656 -5.398438 5.472656 -5.679688 5.515625 -5.921875 C 5.566406 -6.347656 5.570312 -6.753906 5.53125 -7.140625 L 5.5 -7.421875 L 5.5 -7.703125 C 5.53125 -8.128906 5.507812 -8.722656 5.4375 -9.484375 L 5.390625 -9.859375 C 5.390625 -10.046875 5.488281 -10.15625 5.6875 -10.1875 L 5.921875 -10.234375 C 6.242188 -10.242188 6.570312 -10.335938 6.90625 -10.515625 C 7.207031 -10.679688 7.445312 -10.800781 7.625 -10.875 C 8.125 -11.0625 8.609375 -11.390625 9.078125 -11.859375 L 10.109375 -12.953125 C 10.484375 -13.359375 10.695312 -13.734375 10.75 -14.078125 L 10.796875 -14.1875 L 10.859375 -14.296875 C 10.921875 -14.429688 10.953125 -14.597656 10.953125 -14.796875 Z M 10.90625 -16.375" transform="translate(163.988 308.585)"/></g></g></g><g fill="#FFF"><g><g><path d="M 9.046875 -4.34375 L 9.03125 -4.296875 L 8.90625 -2.46875 L 8.859375 -1.640625 L 8.84375 -1.40625 L 8.828125 -1.1875 C 8.847656 -0.851562 8.785156 -0.515625 8.640625 -0.171875 C 8.585938 -0.0351562 8.546875 0.09375 8.515625 0.21875 C 8.398438 0.738281 8.125 1.289062 7.6875 1.875 L 7.25 2.515625 C 7.125 2.691406 6.992188 2.8125 6.859375 2.875 C 6.640625 2.96875 6.445312 3.109375 6.28125 3.296875 C 6.132812 3.441406 5.929688 3.519531 5.671875 3.53125 C 5.203125 3.5625 4.679688 3.453125 4.109375 3.203125 C 3.867188 3.097656 3.59375 2.953125 3.28125 2.765625 L 2.875 2.515625 L 2.46875 2.25 C 2.082031 2.019531 1.769531 1.738281 1.53125 1.40625 C 1.019531 0.707031 0.6875 0.0234375 0.53125 -0.640625 C 0.269531 -1.773438 0.117188 -2.925781 0.078125 -4.09375 L 0.03125 -5.78125 L 0 -7.484375 L 0 -9.015625 L 0.03125 -10.5625 L 0.03125 -10.640625 L 0.15625 -12.125 C 0.207031 -12.71875 0.257812 -13.210938 0.3125 -13.609375 C 0.5 -14.992188 1.085938 -16.171875 2.078125 -17.140625 C 2.285156 -17.347656 2.546875 -17.570312 2.859375 -17.8125 L 3.65625 -18.421875 C 3.769531 -18.503906 3.878906 -18.566406 3.984375 -18.609375 C 4.546875 -18.804688 5.0625 -18.867188 5.53125 -18.796875 C 5.75 -18.765625 5.925781 -18.664062 6.0625 -18.5 L 6.34375 -18.109375 L 6.484375 -17.90625 L 6.609375 -17.71875 C 6.816406 -17.445312 6.960938 -17.097656 7.046875 -16.671875 C 7.140625 -16.273438 7.171875 -15.914062 7.140625 -15.59375 C 7.128906 -15.46875 7.132812 -15.320312 7.15625 -15.15625 L 7.21875 -14.734375 L 7.296875 -14.078125 L 7.328125 -13.453125 C 7.335938 -13.191406 7.300781 -12.988281 7.21875 -12.84375 C 7.195312 -12.800781 7.164062 -12.78125 7.125 -12.78125 L 7.0625 -12.796875 L 7.03125 -12.84375 L 6.890625 -13.28125 L 6.765625 -13.84375 L 6.71875 -14.03125 L 6.65625 -14.234375 L 6.421875 -14.765625 L 6.203125 -15.3125 C 5.910156 -16.007812 5.554688 -16.5625 5.140625 -16.96875 C 5.046875 -17.0625 4.941406 -17.066406 4.828125 -16.984375 C 4.535156 -16.753906 4.316406 -16.488281 4.171875 -16.1875 L 4.0625 -15.953125 L 3.953125 -15.703125 C 3.867188 -15.515625 3.820312 -15.34375 3.8125 -15.1875 L 3.828125 -14.84375 L 3.828125 -14.515625 L 3.8125 -14.375 L 3.765625 -14.21875 C 3.734375 -14.09375 3.71875 -13.992188 3.71875 -13.921875 C 3.71875 -13.710938 3.6875 -13.445312 3.625 -13.125 C 3.5625 -12.84375 3.550781 -12.515625 3.59375 -12.140625 L 3.65625 -11.28125 L 3.6875 -10.40625 L 3.765625 -8.671875 L 3.8125 -7.90625 L 3.84375 -7.140625 L 3.921875 -5.90625 L 4.015625 -4.65625 L 4.046875 -4.34375 L 4.0625 -4.046875 L 4.078125 -3.640625 L 4.125 -3.25 L 4.25 -2.453125 C 4.300781 -2.160156 4.363281 -1.898438 4.4375 -1.671875 C 4.570312 -1.296875 4.71875 -0.984375 4.875 -0.734375 C 5.070312 -0.421875 5.257812 -0.1875 5.4375 -0.03125 C 5.6875 0.207031 5.945312 0.222656 6.21875 0.015625 C 6.65625 -0.304688 6.976562 -0.601562 7.1875 -0.875 C 7.382812 -1.132812 7.519531 -1.453125 7.59375 -1.828125 C 7.675781 -2.285156 7.789062 -2.8125 7.9375 -3.40625 L 8 -3.78125 C 8.0625 -4.1875 8.144531 -4.519531 8.25 -4.78125 C 8.289062 -4.875 8.320312 -4.992188 8.34375 -5.140625 L 8.390625 -5.515625 L 8.40625 -5.578125 L 8.421875 -5.65625 C 8.429688 -5.707031 8.460938 -5.742188 8.515625 -5.765625 C 8.566406 -5.773438 8.617188 -5.757812 8.671875 -5.71875 L 8.765625 -5.59375 L 8.890625 -5.4375 C 9.085938 -5.195312 9.15625 -4.910156 9.09375 -4.578125 L 9.0625 -4.484375 L 9.046875 -4.359375 Z M 9.046875 -4.34375" transform="translate(176.511 308.585)"/></g></g></g><g fill="#FFF"><g><g><path d="M 5.609375 -12.890625 C 5.503906 -12.566406 5.414062 -12.191406 5.34375 -11.765625 L 5.203125 -10.65625 L 5.125 -9.8125 C 5.082031 -9.488281 5.035156 -9.203125 4.984375 -8.953125 L 4.953125 -8.703125 C 4.929688 -8.566406 4.988281 -8.5 5.125 -8.5 C 5.226562 -8.5 5.332031 -8.507812 5.4375 -8.53125 L 6.53125 -8.78125 C 6.769531 -8.832031 6.859375 -8.984375 6.796875 -9.234375 L 6.6875 -9.609375 L 6.375 -10.5625 L 6.125 -11.375 L 5.859375 -12.203125 L 5.75 -12.546875 Z M 0.125 -0.03125 L 0.140625 -0.40625 C 0.128906 -0.5625 0.140625 -0.738281 0.171875 -0.9375 C 0.203125 -1.144531 0.21875 -1.347656 0.21875 -1.546875 C 0.1875 -2.109375 0.25 -2.925781 0.40625 -4 L 0.546875 -5.21875 L 0.6875 -6.625 L 0.828125 -8 L 0.890625 -8.46875 L 0.96875 -8.921875 L 1.109375 -10.359375 L 1.265625 -11.796875 L 1.359375 -12.578125 L 1.453125 -13.375 L 1.546875 -14.09375 L 1.65625 -14.828125 C 1.738281 -15.410156 1.78125 -15.894531 1.78125 -16.28125 L 1.875 -16.84375 L 2.046875 -18.328125 C 2.066406 -18.546875 2.160156 -18.679688 2.328125 -18.734375 C 2.554688 -18.828125 2.75 -19 2.90625 -19.25 L 2.96875 -19.34375 L 3.046875 -19.421875 C 3.128906 -19.503906 3.207031 -19.515625 3.28125 -19.453125 C 3.351562 -19.398438 3.472656 -19.34375 3.640625 -19.28125 L 3.828125 -19.203125 L 3.984375 -19.109375 C 4.128906 -19.015625 4.3125 -18.960938 4.53125 -18.953125 C 5.039062 -18.941406 5.421875 -18.648438 5.671875 -18.078125 C 5.992188 -17.347656 6.347656 -16.296875 6.734375 -14.921875 L 6.96875 -14.125 L 7.1875 -13.328125 L 7.296875 -12.984375 L 7.421875 -12.65625 L 7.859375 -11.28125 C 8.046875 -10.707031 8.1875 -10.242188 8.28125 -9.890625 C 8.351562 -9.597656 8.46875 -9.300781 8.625 -9 L 8.796875 -8.578125 L 8.9375 -8.171875 L 9.515625 -6.703125 L 9.59375 -6.5625 L 9.625 -6.421875 C 9.644531 -6.179688 9.707031 -5.921875 9.8125 -5.640625 L 9.953125 -5.296875 L 10.125 -4.921875 C 10.257812 -4.628906 10.40625 -4.28125 10.5625 -3.875 L 10.953125 -2.796875 C 11.078125 -2.460938 11.226562 -2.097656 11.40625 -1.703125 C 11.507812 -1.472656 11.578125 -1.222656 11.609375 -0.953125 C 11.628906 -0.835938 11.628906 -0.71875 11.609375 -0.59375 C 11.578125 -0.300781 11.40625 -0.128906 11.09375 -0.078125 C 10.96875 -0.0546875 10.867188 -0.0976562 10.796875 -0.203125 L 10.515625 -0.59375 L 10.234375 -0.96875 C 10.003906 -1.28125 9.832031 -1.554688 9.71875 -1.796875 L 9.265625 -2.734375 L 8.8125 -3.6875 C 8.488281 -4.40625 8.222656 -5.046875 8.015625 -5.609375 L 7.71875 -6.484375 L 7.40625 -7.34375 L 7.375 -7.46875 L 7.328125 -7.59375 C 7.273438 -7.738281 7.160156 -7.796875 6.984375 -7.765625 C 6.347656 -7.679688 5.835938 -7.664062 5.453125 -7.71875 C 5.191406 -7.75 5.015625 -7.734375 4.921875 -7.671875 C 4.835938 -7.597656 4.773438 -7.425781 4.734375 -7.15625 L 4.015625 -2.578125 L 3.890625 -2.015625 L 3.625 -0.859375 C 3.476562 -0.148438 3.269531 0.40625 3 0.8125 C 2.925781 0.914062 2.867188 1.066406 2.828125 1.265625 C 2.785156 1.515625 2.625 1.742188 2.34375 1.953125 C 2.070312 2.148438 1.804688 2.238281 1.546875 2.21875 L 0.984375 2.203125 C 0.835938 2.203125 0.695312 2.160156 0.5625 2.078125 L 0.40625 1.953125 L 0.234375 1.796875 C 0.078125 1.648438 0.0078125 1.4375 0.03125 1.15625 Z M 0.125 -0.03125" transform="translate(188.047 308.585)"/></g></g></g><g fill="#FFF"><g><g><path d="M 0.03125 -18.34375 C 0.03125 -19.425781 0.472656 -20.125 1.359375 -20.4375 C 1.828125 -20.613281 2.191406 -20.476562 2.453125 -20.03125 C 2.953125 -19.175781 3.332031 -18.109375 3.59375 -16.828125 C 3.6875 -16.421875 3.785156 -15.867188 3.890625 -15.171875 L 4.171875 -13.5 L 4.1875 -13.375 L 4.203125 -13.234375 C 4.222656 -13.128906 4.257812 -13.050781 4.3125 -13 L 4.484375 -13.171875 L 4.625 -13.359375 C 4.851562 -13.691406 5.144531 -14.085938 5.5 -14.546875 L 6.390625 -15.71875 C 7.140625 -16.6875 7.703125 -17.5 8.078125 -18.15625 C 8.148438 -18.289062 8.285156 -18.414062 8.484375 -18.53125 L 8.71875 -18.671875 L 8.953125 -18.796875 C 9.085938 -18.867188 9.234375 -18.816406 9.390625 -18.640625 C 9.535156 -18.484375 9.546875 -18.3125 9.421875 -18.125 L 8.84375 -17.21875 C 8.601562 -16.851562 8.414062 -16.550781 8.28125 -16.3125 C 8.144531 -16.082031 7.992188 -15.796875 7.828125 -15.453125 L 7.40625 -14.5625 C 7.0625 -13.851562 6.726562 -13.296875 6.40625 -12.890625 L 5.4375 -11.703125 C 5.3125 -11.546875 5.320312 -11.429688 5.46875 -11.359375 C 7.070312 -10.546875 8.9375 -8.945312 11.0625 -6.5625 L 11.609375 -5.96875 L 12.140625 -5.375 C 12.535156 -4.894531 12.8125 -4.441406 12.96875 -4.015625 C 13.0625 -3.753906 13.132812 -3.429688 13.1875 -3.046875 L 13.265625 -2.546875 L 13.328125 -2.046875 C 13.347656 -1.960938 13.34375 -1.894531 13.3125 -1.84375 C 13.28125 -1.78125 13.222656 -1.742188 13.140625 -1.734375 C 12.023438 -1.523438 11.082031 -1.8125 10.3125 -2.59375 C 9.34375 -3.570312 8.285156 -4.882812 7.140625 -6.53125 L 6.65625 -7.234375 L 6.171875 -7.921875 C 5.785156 -8.441406 5.421875 -8.875 5.078125 -9.21875 L 5.03125 -9.28125 L 4.984375 -9.328125 C 4.941406 -9.378906 4.894531 -9.390625 4.84375 -9.359375 C 4.820312 -9.335938 4.804688 -9.296875 4.796875 -9.234375 C 4.785156 -9.179688 4.785156 -9.128906 4.796875 -9.078125 C 5.023438 -7.304688 5.113281 -4.953125 5.0625 -2.015625 L 5.03125 -1.546875 L 4.96875 -1.09375 C 4.90625 -0.707031 4.6875 -0.484375 4.3125 -0.421875 C 3.863281 -0.347656 3.625 -0.0703125 3.59375 0.40625 C 3.570312 0.757812 3.398438 0.847656 3.078125 0.671875 C 2.765625 0.492188 2.472656 0.414062 2.203125 0.4375 C 2.046875 0.445312 1.925781 0.390625 1.84375 0.265625 L 1.765625 0.078125 L 1.703125 -0.109375 C 1.441406 -1.003906 1.28125 -2.160156 1.21875 -3.578125 C 1.175781 -4.535156 1.039062 -5.867188 0.8125 -7.578125 L 0.546875 -9.546875 C 0.453125 -10.285156 0.390625 -10.953125 0.359375 -11.546875 L 0.25 -12.6875 L 0.125 -13.828125 C 0.0390625 -14.742188 0.0078125 -15.507812 0.03125 -16.125 Z M 0.03125 -18.34375" transform="translate(201.922 308.585)"/></g></g></g><g fill="#FFF"><g><g><path d="M 10.75 -15.0625 C 8.625 -15.601562 6.660156 -15.707031 4.859375 -15.375 C 4.335938 -15.28125 4.003906 -15.472656 3.859375 -15.953125 L 3.71875 -16.46875 L 3.53125 -17.453125 L 3.359375 -18.4375 C 3.222656 -19.207031 3.039062 -19.84375 2.8125 -20.34375 C 2.6875 -20.632812 2.796875 -20.785156 3.140625 -20.796875 L 4.484375 -20.828125 C 4.992188 -20.859375 5.429688 -20.9375 5.796875 -21.0625 L 5.953125 -21.09375 L 6.109375 -21.140625 C 6.210938 -21.179688 6.257812 -21.265625 6.25 -21.390625 C 6.226562 -21.515625 6.160156 -21.59375 6.046875 -21.625 L 5.890625 -21.65625 L 5.71875 -21.65625 L 1 -21.828125 C 0.789062 -21.828125 0.570312 -21.703125 0.34375 -21.453125 C 0.113281 -21.210938 0 -20.976562 0 -20.75 L 0.03125 -19.0625 L 0.078125 -17.390625 C 0.0976562 -16.066406 0.0859375 -14.945312 0.046875 -14.03125 C 0.015625 -13.164062 0.03125 -12.15625 0.09375 -11 L 0.171875 -9.5 L 0.265625 -8 C 0.421875 -5.476562 0.40625 -3.46875 0.21875 -1.96875 C 0.113281 -1.363281 0.359375 -0.84375 0.953125 -0.40625 C 1.535156 0.0078125 2.113281 0.101562 2.6875 -0.125 C 3.851562 -0.59375 5.570312 -0.894531 7.84375 -1.03125 L 8.328125 -1.0625 L 8.828125 -1.0625 C 9.210938 -1.09375 9.539062 -1.175781 9.8125 -1.3125 L 9.90625 -1.359375 L 10.015625 -1.4375 C 10.078125 -1.5 10.101562 -1.570312 10.09375 -1.65625 C 10.0625 -1.738281 10.007812 -1.804688 9.9375 -1.859375 C 9.851562 -1.898438 9.773438 -1.914062 9.703125 -1.90625 C 9.421875 -1.851562 9.097656 -1.84375 8.734375 -1.875 L 7.765625 -1.96875 C 6.941406 -2.050781 6.289062 -2.019531 5.8125 -1.875 C 5.4375 -1.75 5.328125 -1.878906 5.484375 -2.265625 C 5.765625 -2.921875 5.875 -3.601562 5.8125 -4.3125 L 5.6875 -6.6875 L 5.59375 -8.1875 C 5.550781 -8.757812 5.445312 -9.238281 5.28125 -9.625 C 5.039062 -10.1875 4.859375 -10.847656 4.734375 -11.609375 L 4.625 -12.609375 L 4.53125 -13.625 C 4.5 -13.9375 4.628906 -14.097656 4.921875 -14.109375 C 5.253906 -14.109375 5.734375 -14.140625 6.359375 -14.203125 L 7.078125 -14.265625 L 7.796875 -14.296875 L 9.25 -14.296875 C 9.820312 -14.304688 10.304688 -14.363281 10.703125 -14.46875 C 10.929688 -14.53125 11.050781 -14.613281 11.0625 -14.71875 C 11.082031 -14.832031 11.054688 -14.914062 10.984375 -14.96875 L 10.859375 -15.03125 Z M 10.75 -15.0625" transform="translate(217.75 308.585)"/></g></g></g><g fill="#FFF"><g><g><path d="M 4.484375 -12.59375 L 4.5 -12.171875 C 4.507812 -12.046875 4.535156 -11.921875 4.578125 -11.796875 C 4.609375 -11.660156 4.691406 -11.617188 4.828125 -11.671875 L 5.21875 -11.84375 L 5.59375 -12.03125 C 5.875 -12.164062 6.109375 -12.328125 6.296875 -12.515625 C 6.535156 -12.734375 6.671875 -12.988281 6.703125 -13.28125 C 6.773438 -13.9375 6.75 -14.515625 6.625 -15.015625 C 6.40625 -15.816406 5.941406 -16.445312 5.234375 -16.90625 C 5.023438 -17.03125 4.832031 -17.054688 4.65625 -16.984375 L 4.53125 -16.9375 L 4.390625 -16.890625 C 4.273438 -16.847656 4.222656 -16.765625 4.234375 -16.640625 L 4.421875 -14 L 4.5 -12.59375 Z M 4.671875 -8.203125 C 4.515625 -7.171875 4.453125 -6.285156 4.484375 -5.546875 C 4.492188 -5.335938 4.476562 -5.085938 4.4375 -4.796875 C 4.394531 -4.554688 4.378906 -4.296875 4.390625 -4.015625 L 4.359375 -3.171875 L 4.3125 -2.359375 L 4.296875 1.078125 C 4.296875 1.453125 4.238281 1.757812 4.125 2 L 4.03125 2.203125 L 3.953125 2.4375 C 3.890625 2.613281 3.820312 2.753906 3.75 2.859375 L 3.65625 3 L 3.5625 3.125 C 3.394531 3.3125 3.195312 3.351562 2.96875 3.25 L 2.296875 2.953125 L 1.640625 2.640625 C 1.203125 2.441406 0.953125 2.070312 0.890625 1.53125 L 0.8125 0.59375 L 0.734375 -0.25 L 0.6875 -1.09375 L 0.640625 -1.828125 L 0.5625 -2.546875 L 0.3125 -4.84375 C 0.257812 -5.226562 0.21875 -5.707031 0.1875 -6.28125 L 0.09375 -7.703125 C 0.03125 -8.628906 0.00390625 -9.707031 0.015625 -10.9375 L 0.03125 -12.546875 L 0.0625 -14.15625 L 0.125 -18.21875 C 0.132812 -18.625 0.25 -18.957031 0.46875 -19.21875 C 0.65625 -19.445312 0.882812 -19.5625 1.15625 -19.5625 C 1.488281 -19.550781 1.738281 -19.53125 1.90625 -19.5 L 2.453125 -19.40625 L 3.015625 -19.28125 C 3.234375 -19.226562 3.394531 -19.09375 3.5 -18.875 C 3.65625 -18.5625 3.8125 -18.328125 3.96875 -18.171875 L 4.046875 -18.078125 L 4.09375 -17.96875 C 4.195312 -17.769531 4.359375 -17.691406 4.578125 -17.734375 L 4.671875 -17.75 L 4.765625 -17.78125 C 5.148438 -17.90625 5.550781 -17.835938 5.96875 -17.578125 C 6.375 -17.328125 6.832031 -16.835938 7.34375 -16.109375 C 7.707031 -15.578125 7.929688 -15.046875 8.015625 -14.515625 C 8.128906 -13.796875 8.019531 -13.113281 7.6875 -12.46875 C 7.613281 -12.332031 7.5 -12.171875 7.34375 -11.984375 L 7.140625 -11.75 L 6.96875 -11.5 C 6.894531 -11.382812 6.757812 -11.28125 6.5625 -11.1875 L 6.25 -11.0625 C 6.0625 -10.96875 6.015625 -10.832031 6.109375 -10.65625 L 6.390625 -10.0625 L 6.703125 -9.46875 L 7.09375 -8.828125 L 7.5 -8.1875 L 7.59375 -8.046875 L 7.671875 -7.921875 C 7.941406 -7.429688 8.304688 -6.828125 8.765625 -6.109375 L 9.3125 -5.234375 L 9.875 -4.34375 L 10.0625 -4.078125 C 10.257812 -3.828125 10.472656 -3.523438 10.703125 -3.171875 L 11.296875 -2.25 L 12.03125 -1.09375 C 12.175781 -0.851562 12.300781 -0.597656 12.40625 -0.328125 C 12.519531 -0.00390625 12.535156 0.253906 12.453125 0.453125 C 12.421875 0.535156 12.414062 0.625 12.4375 0.71875 C 12.46875 0.84375 12.460938 0.972656 12.421875 1.109375 L 12.375 1.3125 L 12.296875 1.5 C 12.273438 1.5625 12.222656 1.609375 12.140625 1.640625 C 11.921875 1.734375 11.785156 1.769531 11.734375 1.75 C 11.671875 1.738281 11.570312 1.640625 11.4375 1.453125 L 11.234375 1.140625 C 11.140625 0.960938 11.007812 0.8125 10.84375 0.6875 C 10.65625 0.539062 10.488281 0.351562 10.34375 0.125 L 9.8125 -0.703125 L 9.625 -0.921875 C 9.40625 -1.160156 9.148438 -1.476562 8.859375 -1.875 L 8.484375 -2.375 L 8.125 -2.859375 C 7.570312 -3.554688 7.144531 -4.140625 6.84375 -4.609375 L 6.328125 -5.390625 L 5.796875 -6.171875 C 5.503906 -6.597656 5.25 -7.050781 5.03125 -7.53125 L 4.875 -7.859375 Z M 4.671875 -8.203125" transform="translate(231.202 308.585)"/></g></g></g><g fill="#FFF"><g><g><path d="M 10.859375 -21.421875 C 10.816406 -21.691406 10.695312 -21.945312 10.5 -22.1875 C 10.351562 -22.351562 10.171875 -22.515625 9.953125 -22.671875 L 9.65625 -22.859375 L 9.34375 -23.0625 C 9.09375 -23.207031 8.878906 -23.15625 8.703125 -22.90625 C 8.523438 -22.664062 8.382812 -22.398438 8.28125 -22.109375 C 8.15625 -21.691406 7.960938 -21.1875 7.703125 -20.59375 L 7.3125 -19.734375 L 6.9375 -18.859375 C 6.757812 -18.460938 6.5625 -17.960938 6.34375 -17.359375 L 5.796875 -15.84375 L 5.40625 -14.75 L 5.046875 -13.65625 L 4.796875 -13.109375 C 4.773438 -13.054688 4.742188 -13.03125 4.703125 -13.03125 C 4.648438 -13.03125 4.613281 -13.054688 4.59375 -13.109375 L 4.28125 -13.671875 C 3.75 -14.597656 3.34375 -15.367188 3.0625 -15.984375 L 2.4375 -17.25 L 1.8125 -18.5 L 1.21875 -19.78125 C 1.007812 -20.269531 0.835938 -20.707031 0.703125 -21.09375 C 0.585938 -21.414062 0.367188 -21.863281 0.046875 -22.4375 C -0.128906 -22.757812 -0.421875 -22.9375 -0.828125 -22.96875 C -1.054688 -22.976562 -1.148438 -22.875 -1.109375 -22.65625 C -1.078125 -22.488281 -1.015625 -22.273438 -0.921875 -22.015625 L -0.453125 -20.78125 C -0.273438 -20.269531 -0.132812 -19.847656 -0.03125 -19.515625 C 0.226562 -18.679688 0.578125 -17.738281 1.015625 -16.6875 C 1.773438 -14.925781 2.566406 -13.414062 3.390625 -12.15625 L 3.578125 -11.828125 L 3.78125 -11.5 C 3.9375 -11.226562 3.96875 -10.953125 3.875 -10.671875 C 3.84375 -10.566406 3.8125 -10.4375 3.78125 -10.28125 C 3.6875 -9.632812 3.53125 -8.890625 3.3125 -8.046875 L 3.015625 -6.953125 L 2.71875 -5.84375 C 2.164062 -3.832031 1.789062 -2.304688 1.59375 -1.265625 L 1.40625 -0.390625 L 1.234375 0.484375 C 1.109375 1.160156 1.03125 1.75 1 2.25 L 0.984375 2.34375 C 0.910156 2.757812 0.976562 3.140625 1.1875 3.484375 C 1.28125 3.648438 1.414062 3.769531 1.59375 3.84375 C 1.914062 3.976562 2.300781 4.082031 2.75 4.15625 C 2.925781 4.1875 3.09375 4.1875 3.25 4.15625 C 3.882812 3.976562 4.320312 3.644531 4.5625 3.15625 L 4.65625 2.96875 L 4.765625 2.8125 C 5.222656 2.019531 5.523438 1.296875 5.671875 0.640625 C 5.816406 0.015625 5.945312 -0.472656 6.0625 -0.828125 L 6.25 -1.390625 L 6.4375 -1.96875 C 6.582031 -2.382812 6.734375 -2.914062 6.890625 -3.5625 L 7.078125 -4.375 L 7.28125 -5.171875 C 7.507812 -6.085938 7.742188 -6.90625 7.984375 -7.625 L 8.328125 -8.71875 L 8.671875 -9.796875 L 8.984375 -11.03125 L 9.28125 -12.28125 L 9.5 -13.265625 L 9.71875 -14.234375 L 9.90625 -14.9375 L 10.078125 -15.640625 C 10.179688 -16.179688 10.3125 -16.671875 10.46875 -17.109375 C 10.59375 -17.453125 10.664062 -17.738281 10.6875 -17.96875 L 10.890625 -20.03125 L 10.96875 -20.75 L 10.90625 -21.109375 Z M 10.859375 -21.421875" transform="translate(245.865 308.585)"/></g></g></g></svg>